# xmcd CD database file
#
# Track frame offsets:
#	150
#	19657
#	39050
#	56992
#	76930
#	85587
#	91265
#	110797
#	131935
#	145580
#
# Disc length: 2143 seconds
#
# Revision: 3
# Processed by: cddbd v1.5.2PL0 Copyright (c) Steve Scherf et al.
# Submitted via: CDex 1.70beta3
#
DISCID=79085d0a
DTITLE=さまざまなアーティスト - TVまんが テーマソング集1
DYEAR=2003
DGENRE=Anime
TTITLE0=遠藤正明/爆竜戦隊アバレンジャー
TTITLE1=串田アキラ／森の木児童合唱団/We are the ONE
TTITLE2=サイキックラバー/TRANNSFORMER
TTITLE3=サイキックラバー/Never Ending Road
TTITLE4=齋藤彩夏/げんき げんき ノンタン
TTITLE5=齋藤彩夏/ノンタンえかきうた
TTITLE6=由紀さおり／安田祥子/虹色の砂時計
TTITLE7=由紀さおり／安田祥子/星が歌った物語
TTITLE8=青柳常夫/POPEE the クラウン
TTITLE9=矢島晶子／ならはしみき/ママとのお約束条項の歌
EXTD=YEAR: 2003
EXTT0=
EXTT1=
EXTT2=
EXTT3=
EXTT4=
EXTT5=
EXTT6=
EXTT7=
EXTT8=
EXTT9=
PLAYORDER=
